<svg id="Warstwa_1" data-name="Warstwa 1" xmlns="http://www.w3.org/2000/svg" viewBox="0 0 784.56 431.42"><defs><style>.cls-1{fill:rgb(247,222,158);stroke:#222;stroke-width:2.5px;stroke-miterlimit:10;}</style></defs><g id="_10000" data-name="10000"><path class="cls-1" d="M343.09,119.63c-.06,18.33-3.9,35.68-13.93,51.29-9.74,15.18-23.24,25.05-40.76,30-12,3.36-23.86,2.66-35.26-.6a62.79,62.79,0,0,1-26.56-15.74c-21.45-20.86-26.57-46.75-24.34-74.94C204,87,212.73,67.41,230.3,52.45c23.39-19.94,60.49-19.7,83.86-.53,16.77,13.75,24.31,31.82,27.93,52.32A74.92,74.92,0,0,1,343.09,119.63Zm-34.7-1.28c-.18-2.38-.27-5.38-.65-8.34-1.59-12.44-5.6-23.85-14.48-33.13-12.54-13.1-33.6-10.3-43.4,1.54-8.81,10.65-12.8,22.76-13.28,36.23-.65,17.87,1.9,34.81,14.36,48.92A25.26,25.26,0,0,0,262,171.3c14.23,4.42,28.78-1.34,37-14.13C306.44,145.52,308.3,132.45,308.39,118.35Z" transform="translate(-102.32 -36.75)"/><path class="cls-1" d="M722.69,116c-.56,29.47-7.33,52.65-27.13,70.21-15.08,13.38-32.91,18.25-53.06,15.92a64.23,64.23,0,0,1-37.45-17.78C593.13,173,586.44,158.2,583.32,142c-4.51-23.4-2.8-46.17,8.6-67.44,14.31-26.69,38.77-39.73,66.89-36.69,31.1,3.37,49.68,22.28,59.19,51.05C721.3,98.9,723.09,109.23,722.69,116Zm-34.88,4.58c0-1.5.09-3,0-4.5-1-15.16-4.69-29.39-16.24-40.15a28.73,28.73,0,0,0-41.9,2.17c-7.77,8.9-12.48,19.2-13.21,31.24-1,17.1-.65,33.86,9.64,48.65,13.91,20,39.76,19.32,52.7-1.27C685.74,145.63,687.13,133.18,687.81,120.56Z" transform="translate(-102.32 -36.75)"/><path class="cls-1" d="M886.36,115.18c-.55,27.92-6.33,48.75-21.93,65.84-15.4,16.88-34.82,23.64-57.43,21-23.41-2.67-40.92-14.84-51.22-35.62-16.27-32.81-16-66,3.24-97.62,19.9-32.73,64-41.32,94.78-19.6,14.34,10.11,23.48,24.12,28,40.48C884.55,99.51,886.6,109.92,886.36,115.18Zm-35,9.19c-.19-6.31-.83-10.56-1.16-14.81-1-12.2-4.93-23-13.26-32a29.54,29.54,0,0,0-38.91-4c-12.71,9.1-16.62,23.14-18.46,37.16-1.44,10.92-1.11,22.46,3.29,33.25,3.89,9.57,7.77,18.75,17.5,24.41,8,4.67,24.48,6.19,33.87-2.29C847.35,154.18,850.48,138.81,851.35,124.37Z" transform="translate(-102.32 -36.75)"/><path class="cls-1" d="M417.74,124.21c-.61-23.49,4.81-43.28,17.71-60.95,14.6-20,43.44-30.26,68.7-24,18.58,4.56,32.33,15.27,42.14,31.75,6.45,10.82,9.47,22.21,11.33,34.61,1.89,12.62,1.8,24.83-1.07,37-5.94,25.18-18.68,45.35-43.82,55.42-26.66,10.69-58,2.92-76.15-19.23-8.29-10.11-13.5-21.92-16.56-34.74A82.43,82.43,0,0,1,417.74,124.21Zm106.42-5.87c.57-5.42-1.14-12.4-2.81-19.32a45,45,0,0,0-11.3-21.25c-13.59-14-34.19-13-46.13,2.53-7.29,9.47-10.56,20.44-11.29,32.27-1.19,19.55,1.42,37.87,16.12,52.59,6,6,22.54,10,29.85,6.22,8.74-4.51,15.74-10.94,19.69-20.28C522.47,141.19,524.46,130.9,524.16,118.34Z" transform="translate(-102.32 -36.75)"/><path class="cls-1" d="M171,119.74c0,25.49,0,51,.05,76.46,0,2.75-.72,3.84-3.63,3.79q-13-.24-26,0c-3,.06-3.57-1.19-3.57-3.84q0-41-.17-82c0-12.31-.09-24.63,0-36.95,0-3.11-1-3.68-3.85-2.89-6.91,1.9-13.91,3.44-20.81,5.33-2.72.75-3.86.12-4.51-2.68-1.6-7-3.42-13.92-5.34-20.82-.72-2.59-.38-3.78,2.5-4.6,13.44-3.84,26.72-8.22,40.21-11.85,7.43-2,15.23-.62,22.87-.85,2-.07,2.52,1.18,2.46,2.93-.05,1.33,0,2.67,0,4v74Z" transform="translate(-102.32 -36.75)"/><path class="cls-1" d="M398.2,184.08c-.35,6.65.16,13.31-.82,19.95-2.68,18.21-11.26,27.39-29.34,31.23-10.53,2.23-12.57.5-13-10.46-.14-3.11,2-2.5,3.59-2.82,10.1-2.07,16.06-7.52,17.49-16.06.9-5.37.39-6-5.16-6-7.87,0-8,0-8.13-7.65-.15-8,0-16-.12-24-.06-2.81.83-3.76,3.68-3.71q14.22.22,28.44,0c2.7,0,3.48,1,3.43,3.5C398.13,173.43,398.2,178.76,398.2,184.08Z" transform="translate(-102.32 -36.75)"/></g><g id="Robux"><path class="cls-1" d="M244.9,409.4c-2.47-3.4-1.12-3.28,1.33-4.21,18.52-7,33.19-27,31.82-48.8-.16-2.44-1-4.86-1-7.3,0-11.92-5.07-21.59-13.44-29.56-12.07-11.49-27.34-15.08-43.25-15.41-23.48-.48-47,.07-70.45,0-3.75,0-5.27.75-5.11,4.87.32,8.31.07,16.64.06,25-.06,42-.07,83.95-.26,125.92,0,3.67.82,4.93,4.66,4.77,7.82-.31,15.67-.38,23.48,0,4.71.24,6.28-1,6.15-5.93-.36-14.15-.09-28.32-.24-42.48,0-3,.78-4.08,3.9-4,7,.21,14,.25,21,0,3.22-.12,5.1.94,6.89,3.63,10.05,15.09,20.3,30,30.51,45,1.17,1.71,2,3.73,4.8,3.7,12.15-.12,24.3,0,36.75,0-.07-1,0-1.37-.13-1.59C269.93,445.05,257.7,427,244.9,409.4Zm-16.27-29.48a36.39,36.39,0,0,1-12.73,2.14c-11,.06-21.94-.06-32.91.1-3,0-4.08-.76-4-3.89.22-6.65.06-13.3.06-19.95H179c0-6.49.12-13-.05-19.45-.08-2.86.9-3.72,3.71-3.68,11.64.16,23.28.11,34.91.16a34.41,34.41,0,0,1,9.82,1.58c10.28,3.13,15.9,10.31,16.31,20.72S238.58,376.19,228.63,379.92Z" transform="translate(-102.32 -36.75)"/><path class="cls-1" d="M553.45,349.21c-19.51-13-43.53-11.53-61.89,3.3-1.77,1.43-3.73,2.86-5.76,2.06s-1.09-3.26-1.1-5c-.09-15.83-.17-31.66-.08-47.49,0-3.1-.61-4.48-4.11-4.38q-12.74.38-25.49,0c-3.53-.1-4.08,1.35-4,4.39.13,9.66,0,19.32,0,29q-.09,64.74-.24,129.48c0,3.52.55,5.05,4.56,4.9,8.49-.33,17-.2,25.49,0,2.95,0,4.3-.73,4.11-3.9-.21-3.64-.05-7.3-.05-12a27,27,0,0,1,2.2,1.92c20.19,23.66,58.63,20.2,77.77-2.36,12.92-15.23,16.5-33.18,15-52.36C578.23,377.06,570.3,360.42,553.45,349.21ZM542.1,421.49a29.43,29.43,0,0,1-30.71,17.63c-12.85-1.66-23.31-11.84-26.11-25.51a39.3,39.3,0,0,1-.95-10.08C484,387,494.53,373.45,510,370.17c12-2.54,25.84,4.5,31.64,16.53C547.18,398.14,547.23,409.92,542.1,421.49Z" transform="translate(-102.32 -36.75)"/><path class="cls-1" d="M403.11,353.82c-15.51-11.83-33.34-15-52.49-12.38-36.9,5-62.05,41.62-53.15,77.76,7.19,29.21,32.51,48.37,64,48.43,24.81,0,44.39-10.78,57.44-31.28C435.68,410,430.14,374.44,403.11,353.82Zm-40.86,85.45c-18.79,0-33.12-15.21-33.14-35.21,0-20.47,13.19-34.49,32.43-34.45,18.74,0,33.19,15.38,33.14,35.19C394.63,424.77,381,439.26,362.25,439.27Z" transform="translate(-102.32 -36.75)"/><path class="cls-1" d="M710.22,342.39c-8.15.19-16.32.35-24.46.06-4-.14-5.06,1.14-5,5.05.14,20.31,0,40.62,0,60.93,0,5.55-.52,11-3,16.07-4.59,9.47-10.77,12.63-21.15,12.39-10-.23-16.49-5.36-19.36-14.44-1.47-4.67-1.66-9.5-1.67-14.34,0-20.32-.17-40.64,0-61,0-3.77-1-4.82-4.78-4.69-8.32.29-16.65.17-25,0-2.68-.05-3.84.55-3.83,3.55.09,26.65-.46,53.31.18,79.94.64,26.92,18.2,42.59,45,41.52,13.83-.55,23.9-8,33.5-18.94,0,5.2.13,9.14,0,13.07-.12,2.77.78,3.82,3.68,3.77,8.82-.15,17.65-.17,26.47,0,3,.06,4-.86,4-3.94q-.21-57.47-.16-114.93C714.56,343.16,713.35,342.32,710.22,342.39Z" transform="translate(-102.32 -36.75)"/><path class="cls-1" d="M851.75,460.41q-19-27.5-38.13-55c-1.41-2-1.79-3.47-.2-5.7,8-11.24,15.8-22.62,23.68-33.95l16.14-23.25c-11,0-20.89.16-30.8-.08-3.31-.09-5.09,1.14-6.79,3.8-6.38,9.95-13,19.71-19.44,29.66-1.8,2.8-2.76,3.1-4.67.07-6.37-10.13-13-20.11-19.46-30.17-1.21-1.87-2.3-3.38-5-3.34-10.64.16-21.29.07-32.46.07a11.38,11.38,0,0,0,.74,2c12.39,18.09,24.64,36.28,37.33,54.15,2.47,3.48,2.21,5.42,0,8.58-12.73,17.92-25.24,36-37.8,54-.73,1.05-2.28,2.07-1.75,3.36.71,1.7,2.63.83,4,.84,8.82.08,17.65-.08,26.47.11a6.15,6.15,0,0,0,6-3.31c5.59-8.87,11.35-17.64,17.16-26.37,2.06-3.1,3.64-6.59,6.71-9.37,7.81,12,15.55,23.6,23,35.41a6.89,6.89,0,0,0,6.85,3.65c9.16-.22,18.32,0,27.48-.11,1.18,0,2.68.69,3.63-1.06C853.58,463.15,852.69,461.77,851.75,460.41Z" transform="translate(-102.32 -36.75)"/></g></svg>