<svg id="Warstwa_1" data-name="Warstwa 1" xmlns="http://www.w3.org/2000/svg" viewBox="0 0 710.96 431.72"><defs><style>.cls-1{fill:rgb(247,222,158);stroke:#222;stroke-width:2.5px;stroke-miterlimit:10;}</style></defs><g id="_1700" data-name="1700"><path class="cls-1" d="M628.56,114.69c-.66,19.35-3.14,33.21-9.33,46.76-9.65,21.13-25.42,35.17-47.5,39.51-27.1,5.32-53.79-2.16-70.77-29.83-18.29-29.84-18.89-61.57-5-93.33C512.28,40.6,556.42,25.88,591.18,46c15.31,8.87,25.86,22.42,31.35,39.2C626.14,96.21,629.33,107.57,628.56,114.69Zm-34.9,5.74a62.28,62.28,0,0,0-1.12-13.92c-2.13-12.23-6.36-23.5-16.18-31.81a29.77,29.77,0,0,0-43.48,5.64,57.9,57.9,0,0,0-10.51,28.18c-1.82,16.51-.58,32.66,8.29,47.26,13.39,22,40.8,22,54.23.05C591.54,145,593.41,132.89,593.66,120.43Z" transform="translate(-144.08 -36.46)"/><path class="cls-1" d="M650.42,119.23c.31-24,6.92-46.35,25.18-64C691,40.46,709.8,34.92,730.7,37.86c28.47,4,46.29,21.46,55.55,47.75,8.46,24,7.91,48.28-1.55,72.07-16,40.13-60.38,56.57-97.18,35.88-16.68-9.38-26.5-24.32-32.45-42.12C651.66,141.23,650.66,130.67,650.42,119.23Zm106.67,1.24c0-14.79-3.25-27.56-9.55-37.19-10-15.33-27.75-20.08-42-11.23A36.32,36.32,0,0,0,690.92,90c-7.88,19.73-8,39.67,0,59.37,3.11,7.67,7.49,14.52,15.33,18.86,13.32,7.38,30.41,4,39.31-8.27C754.11,148.11,757.18,134.77,757.09,120.47Z" transform="translate(-144.08 -36.46)"/><path class="cls-1" d="M432.43,69.29h-5.77c-21.83,0-43.65-.1-65.47.09-4,0-5.17-1.15-5-5.08.29-6.81.16-13.65,0-20.48-.06-2.81.49-4.23,3.79-4.23q53.72.15,107.44,0c2.9,0,3.73,1.06,3.67,3.81-.16,6.49-.16,13,0,19.49.05,2.52-1.07,4.47-2.16,6.52q-23.54,44-47.05,88-10.31,19.31-20.64,38.6c-.82,1.52-1.19,3.58-3.63,3.58-11.76,0-23.51,0-36.25,0Z" transform="translate(-144.08 -36.46)"/><path class="cls-1" d="M265.7,119.65c0,24.81-.14,49.62.12,74.43.05,4.77-1.45,5.85-5.88,5.65-7.48-.35-15-.32-22.47,0-4,.17-5-1.19-5-5,0-38.46-.14-76.92-.25-115.38,0-6.08,0-6.09-5.8-4.65-6.3,1.56-12.63,3-18.88,4.77-2.5.7-3.61.15-4.22-2.39-1.73-7.28-3.61-14.52-5.51-21.76-.57-2.2,0-3.25,2.3-3.92,13.9-4,27.65-8.61,41.65-12.21,7.07-1.81,14.59-.48,21.9-.49,3.21,0,2.23,2.78,2.23,4.55,0,18.66,0,37.31,0,56q0,10.24,0,20.48Z" transform="translate(-144.08 -36.46)"/><path class="cls-1" d="M334,182.24c-.14,8.81.23,16.31-1,23.74-3.16,18.7-18.3,30.86-37.21,29.93-1.86-.09-2.66-.68-3-2.49-.54-3.28-2.34-6.76-1.68-9.72.77-3.48,5.34-2,8.09-3.24,7.36-3.21,12.52-7.82,13-16.41.17-3-.47-4.49-4-4.47-9.66.07-9.66-.09-9.68-10,0-7,.08-14-.08-21-.07-3,.47-4.48,4.05-4.37,9.14.26,18.3.23,27.45,0,3.39-.08,4.26,1.15,4.12,4.31C333.79,173.58,334,178.58,334,182.24Z" transform="translate(-144.08 -36.46)"/></g><g id="Robux"><path class="cls-1" d="M244.9,409.4c-2.47-3.4-1.12-3.28,1.33-4.21,18.52-7,33.19-27,31.82-48.8-.16-2.44-1-4.86-1-7.3,0-11.92-5.07-21.59-13.44-29.56-12.07-11.49-27.34-15.08-43.25-15.41-23.48-.48-47,.07-70.45,0-3.75,0-5.27.75-5.11,4.87.32,8.31.07,16.64.06,25-.06,42-.07,83.95-.26,125.92,0,3.67.82,4.93,4.66,4.77,7.82-.31,15.67-.38,23.48,0,4.71.24,6.28-1,6.15-5.93-.36-14.15-.09-28.32-.24-42.48,0-3,.78-4.08,3.9-4,7,.21,14,.25,21,0,3.22-.12,5.1.94,6.89,3.63,10.05,15.09,20.3,30,30.51,45,1.17,1.71,2,3.73,4.8,3.7,12.15-.12,24.3,0,36.75,0-.07-1,0-1.37-.13-1.59C269.93,445.05,257.7,427,244.9,409.4Zm-16.27-29.48a36.39,36.39,0,0,1-12.73,2.14c-11,.06-21.94-.06-32.91.1-3,0-4.08-.76-4-3.89.22-6.65.06-13.3.06-19.95H179c0-6.49.12-13-.05-19.45-.08-2.86.9-3.72,3.71-3.68,11.64.16,23.28.11,34.91.16a34.41,34.41,0,0,1,9.82,1.58c10.28,3.13,15.9,10.31,16.31,20.72S238.58,376.19,228.63,379.92Z" transform="translate(-144.08 -36.46)"/><path class="cls-1" d="M553.45,349.21c-19.51-13-43.53-11.53-61.89,3.3-1.77,1.43-3.73,2.86-5.76,2.06s-1.09-3.26-1.1-5c-.09-15.83-.17-31.66-.08-47.49,0-3.1-.61-4.48-4.11-4.38q-12.74.38-25.49,0c-3.53-.1-4.08,1.35-4,4.39.13,9.66,0,19.32,0,29q-.09,64.74-.24,129.48c0,3.52.55,5.05,4.56,4.9,8.49-.33,17-.2,25.49,0,2.95,0,4.3-.73,4.11-3.9-.21-3.64-.05-7.3-.05-12a27,27,0,0,1,2.2,1.92c20.19,23.66,58.63,20.2,77.77-2.36,12.92-15.23,16.5-33.18,15-52.36C578.23,377.06,570.3,360.42,553.45,349.21ZM542.1,421.49a29.43,29.43,0,0,1-30.71,17.63c-12.85-1.66-23.31-11.84-26.11-25.51a39.3,39.3,0,0,1-.95-10.08C484,387,494.53,373.45,510,370.17c12-2.54,25.84,4.5,31.64,16.53C547.18,398.14,547.23,409.92,542.1,421.49Z" transform="translate(-144.08 -36.46)"/><path class="cls-1" d="M403.11,353.82c-15.51-11.83-33.34-15-52.49-12.38-36.9,5-62.05,41.62-53.15,77.76,7.19,29.21,32.51,48.37,64,48.43,24.81,0,44.39-10.78,57.44-31.28C435.68,410,430.14,374.44,403.11,353.82Zm-40.86,85.45c-18.79,0-33.12-15.21-33.14-35.21,0-20.47,13.19-34.49,32.43-34.45,18.74,0,33.19,15.38,33.14,35.19C394.63,424.77,381,439.26,362.25,439.27Z" transform="translate(-144.08 -36.46)"/><path class="cls-1" d="M710.22,342.39c-8.15.19-16.32.35-24.46.06-4-.14-5.06,1.14-5,5.05.14,20.31,0,40.62,0,60.93,0,5.55-.52,11-3,16.07-4.59,9.47-10.77,12.63-21.15,12.39-10-.23-16.49-5.36-19.36-14.44-1.47-4.67-1.66-9.5-1.67-14.34,0-20.32-.17-40.64,0-61,0-3.77-1-4.82-4.78-4.69-8.32.29-16.65.17-25,0-2.68-.05-3.84.55-3.83,3.55.09,26.65-.46,53.31.18,79.94.64,26.92,18.2,42.59,45,41.52,13.83-.55,23.9-8,33.5-18.94,0,5.2.13,9.14,0,13.07-.12,2.77.78,3.82,3.68,3.77,8.82-.15,17.65-.17,26.47,0,3,.06,4-.86,4-3.94q-.21-57.47-.16-114.93C714.56,343.16,713.35,342.32,710.22,342.39Z" transform="translate(-144.08 -36.46)"/><path class="cls-1" d="M851.75,460.41q-19-27.5-38.13-55c-1.41-2-1.79-3.47-.2-5.7,8-11.24,15.8-22.62,23.68-33.95l16.14-23.25c-11,0-20.89.16-30.8-.08-3.31-.09-5.09,1.14-6.79,3.8-6.38,9.95-13,19.71-19.44,29.66-1.8,2.8-2.76,3.1-4.67.07-6.37-10.13-13-20.11-19.46-30.17-1.21-1.87-2.3-3.38-5-3.34-10.64.16-21.29.07-32.46.07a11.38,11.38,0,0,0,.74,2c12.39,18.09,24.64,36.28,37.33,54.15,2.47,3.48,2.21,5.42,0,8.58-12.73,17.92-25.24,36-37.8,54-.73,1.05-2.28,2.07-1.75,3.36.71,1.7,2.63.83,4,.84,8.82.08,17.65-.08,26.47.11a6.15,6.15,0,0,0,6-3.31c5.59-8.87,11.35-17.64,17.16-26.37,2.06-3.1,3.64-6.59,6.71-9.37,7.81,12,15.55,23.6,23,35.41a6.89,6.89,0,0,0,6.85,3.65c9.16-.22,18.32,0,27.48-.11,1.18,0,2.68.69,3.63-1.06C853.58,463.15,852.69,461.77,851.75,460.41Z" transform="translate(-144.08 -36.46)"/></g></svg>