<svg id="Warstwa_1" data-name="Warstwa 1" xmlns="http://www.w3.org/2000/svg" viewBox="0 0 788.51 431.22"><defs><style>.cls-1{fill:rgb(247,222,158);stroke:#222;stroke-width:2.5px;stroke-miterlimit:10;}</style></defs><g id="_22500" data-name="22500"><path class="cls-1" d="M216.84,191.47V178.56a5.71,5.71,0,0,1,.07-.84c0-7-.73-7.05-8.83-7-3.54,0-7.12.18-10.59-.1H168a44.22,44.22,0,0,1-8.31.11c-2-.14-4,.09-6-.05s-5.32,1.08-6-.74c-.9-2.57,2.8-2.48,4.32-3.71,12.8-10.32,26-20.13,38.46-30.92,11.53-10,21.31-21.21,24.15-36.86a105.94,105.94,0,0,0,1-11,5.71,5.71,0,0,1,0-2.4,5.74,5.74,0,0,1-.2-2.44c0-.06,0-.12,0-.18a5.58,5.58,0,0,1-.15-1.87l-.1-.23s0,0,0,0a5.82,5.82,0,0,1-.19-1.5c0-.15,0-.3,0-.44s0-.39-.07-.58a35.31,35.31,0,0,1-1.76-5.58c-2.88-12.73-10.83-21.49-22-27.47a60.79,60.79,0,0,0-38.76-6.44,24.19,24.19,0,0,1-4.09.28,5.25,5.25,0,0,1-1.84.32,6,6,0,0,1-1.14-.11,5.18,5.18,0,0,1-1.82.33h-.19a4.61,4.61,0,0,1-.53.15,4.8,4.8,0,0,1-2.36.62,4.7,4.7,0,0,1-2.17.65,4.34,4.34,0,0,1-1.95.81,8.73,8.73,0,0,1-2.16.91C120.82,47.52,111.45,57.53,103,68.65c-1.28,1.68-1.25,2.77.46,4.11C110,77.88,116.56,83,123,88.33c2.11,1.75,3.12.72,4.39-.87a86.5,86.5,0,0,1,12.71-12.67c.51-.43,1-1,1.6-1.44a4.5,4.5,0,0,1,1.66-1.19,5.27,5.27,0,0,1,1.22-.75,4.52,4.52,0,0,1,1-.61,5.49,5.49,0,0,1,.93-.38l.17,0a5.05,5.05,0,0,1,1.37-.64l.41-.05a1.69,1.69,0,0,1,.31-.13,3.62,3.62,0,0,1,1.92-.43h.1a7.74,7.74,0,0,1,1.82-.49c9.22-1.36,18-.6,23.95,7.45S182.06,93,178,101.72s-11.21,15.3-18.49,21.39c-18,15.07-36.18,29.93-54.37,44.76-4.07,3.31-6.84,6.72-6.08,12.54a74.14,74.14,0,0,1,.06,15c-.31,4,1.26,4.75,4.82,4.6,6.15-.27,12.34.15,18.49-.16a8.7,8.7,0,0,1,2.69.21h8.71a9.63,9.63,0,0,1,2.2-.18c12.83.13,25.65.05,38.48.05,12.49,0,25-.13,37.47.08,3.76.07,5.56-.75,5-4.87A10.14,10.14,0,0,1,216.84,191.47Z" transform="translate(-98.45 -36.96)"/><path class="cls-1" d="M355.84,191.47V178.56a5.71,5.71,0,0,1,.07-.84c0-7-.73-7.05-8.83-7-3.54,0-7.12.18-10.59-.1H307a44.22,44.22,0,0,1-8.31.11c-2-.14-4,.09-6-.05s-5.32,1.08-6-.74c-.9-2.57,2.8-2.48,4.32-3.71,12.8-10.32,26-20.13,38.46-30.92,11.53-10,21.31-21.21,24.15-36.86a105.94,105.94,0,0,0,1-11,5.71,5.71,0,0,1,0-2.4,5.74,5.74,0,0,1-.2-2.44c0-.06,0-.12,0-.18a5.58,5.58,0,0,1-.15-1.87l-.1-.23s0,0,0,0a5.82,5.82,0,0,1-.19-1.5c0-.15,0-.3,0-.44s-.05-.39-.07-.58a35.31,35.31,0,0,1-1.76-5.58c-2.88-12.73-10.83-21.49-22-27.47a60.79,60.79,0,0,0-38.76-6.44,24.19,24.19,0,0,1-4.09.28,5.25,5.25,0,0,1-1.84.32,6,6,0,0,1-1.14-.11,5.18,5.18,0,0,1-1.82.33h-.19a4.61,4.61,0,0,1-.53.15,4.8,4.8,0,0,1-2.36.62,4.7,4.7,0,0,1-2.17.65,4.34,4.34,0,0,1-1.95.81,8.73,8.73,0,0,1-2.16.91C259.82,47.52,250.45,57.53,242,68.65c-1.28,1.68-1.25,2.77.46,4.11C249,77.88,255.56,83,262,88.33c2.11,1.75,3.12.72,4.39-.87a86.5,86.5,0,0,1,12.71-12.67c.51-.43,1-1,1.6-1.44a4.5,4.5,0,0,1,1.66-1.19,5.27,5.27,0,0,1,1.22-.75,4.52,4.52,0,0,1,1-.61,5.49,5.49,0,0,1,.93-.38l.17,0a5.05,5.05,0,0,1,1.37-.64l.41-.05a1.69,1.69,0,0,1,.31-.13,3.62,3.62,0,0,1,1.92-.43h.1a7.74,7.74,0,0,1,1.82-.49c9.22-1.36,18-.6,23.95,7.45S321.06,93,317,101.72s-11.21,15.3-18.49,21.39c-18,15.07-36.18,29.93-54.37,44.76-4.07,3.31-6.84,6.72-6.08,12.54a74.14,74.14,0,0,1,.06,15c-.31,4,1.26,4.75,4.82,4.6,6.15-.27,12.34.15,18.49-.16a8.7,8.7,0,0,1,2.69.21h8.71a9.63,9.63,0,0,1,2.2-.18c12.83.13,25.65.05,38.48.05,12.49,0,25-.13,37.47.08,3.76.07,5.56-.75,5-4.87A10.14,10.14,0,0,1,355.84,191.47Z" transform="translate(-98.45 -36.96)"/><path class="cls-1" d="M502.26,39.64c14.65,0,29.3.17,44-.1,4.34-.09,5.33,1.38,5.15,5.4-.32,6.64-.32,13.33,0,20,.16,3.72-.91,4.77-4.7,4.74-20.15-.14-40.3.12-60.45,0-3.19,0-3.91.91-4.05,3.83-.35,7.32-.92,14.63-1.63,21.92-.32,3.23.7,3.46,3.58,2.83,15.26-3.33,30.43-3.25,45.12,2.65,15.42,6.2,24.74,17.7,27.77,34,3,16,.81,31.18-8.53,44.88-4.4,6.46-10.41,11.11-17.18,14.9-14.08,7.9-29.62,9.33-44.91,7.36-16.77-2.17-32.32-8.8-45.08-20.69-2.24-2.09-2.89-3.34-.58-5.9,5.23-5.82,10.28-11.82,15.06-18,2.25-2.91,3.65-2.66,6.21-.42,11.57,10.09,24.64,16.33,40.5,14.6,9-1,16.57-4.59,20.38-13.15,3.53-7.92,3.28-16-2.34-23.14-5.22-6.63-12.73-8.82-20.72-9.53-9.47-.84-18.59,1.13-27.35,4.49a7.26,7.26,0,0,1-7.75-1c-5.26-3.75-13-6.07-15.49-11.08s.28-12.6.65-19.06c1-18.12,2.16-36.25,3-54.38.18-4,1.28-5.32,5.46-5.24C473,39.81,487.61,39.64,502.26,39.64Z" transform="translate(-98.45 -36.96)"/><path class="cls-1" d="M722.46,122c-.9,20.15-5.38,40.75-20.11,57.8-31.5,36.44-89.1,30-110.59-13.11-17.14-34.4-16.1-69.34,6.19-101.13C625,27,682.69,29.19,708.33,69.13,718.4,84.83,722,102.13,722.46,122Zm-35-.52a66.41,66.41,0,0,0-6-30.72c-5.53-12.49-14.42-21.46-28.92-22-14.34-.57-23.58,7.53-30,19.57a58,58,0,0,0-6.74,25.36c-.46,12,.1,23.74,4.77,34.82,4.48,10.65,9.86,20.57,22.85,23.5,6.42,1.44,13,2.12,18.61-.23a35.82,35.82,0,0,0,19.66-20.23C685.48,141.88,688,131.92,687.43,121.51Z" transform="translate(-98.45 -36.96)"/><path class="cls-1" d="M886.46,122c-.9,20.15-5.38,40.75-20.11,57.8-31.5,36.44-89.1,30-110.59-13.11-17.14-34.4-16.1-69.34,6.19-101.13C789,27,846.69,29.19,872.33,69.13,882.4,84.83,886,102.13,886.46,122Zm-35-.52a66.41,66.41,0,0,0-6-30.72c-5.53-12.49-14.42-21.46-28.92-22-14.34-.57-23.58,7.53-30,19.57a58,58,0,0,0-6.74,25.36c-.46,12,.1,23.74,4.77,34.82,4.48,10.65,9.86,20.57,22.85,23.5,6.42,1.44,13,2.12,18.61-.23a35.82,35.82,0,0,0,19.66-20.23C849.48,141.88,852,131.92,851.43,121.51Z" transform="translate(-98.45 -36.96)"/><path class="cls-1" d="M415,183.38c-.13,8.39.23,15.53-1,22.61-3,17.81-17.43,29.38-35.43,28.5-1.77-.08-2.53-.64-2.82-2.37-.52-3.12-2.23-6.43-1.6-9.25.73-3.32,5.08-2,7.7-3.1,7-3.05,11.93-7.44,12.38-15.61.16-2.9-.45-4.29-3.83-4.26-9.2.07-9.2-.09-9.21-9.49,0-6.66.07-13.31-.08-20-.07-2.87.45-4.28,3.85-4.18,8.71.26,17.43.23,26.14,0,3.24-.08,4.06,1.09,3.93,4.1C414.81,175.14,415,179.9,415,183.38Z" transform="translate(-98.45 -36.96)"/></g><g id="Robux"><path class="cls-1" d="M244.9,409.4c-2.47-3.4-1.12-3.28,1.33-4.21,18.52-7,33.19-27,31.82-48.8-.16-2.44-1-4.86-1-7.3,0-11.92-5.07-21.59-13.44-29.56-12.07-11.49-27.34-15.08-43.25-15.41-23.48-.48-47,.07-70.45,0-3.75,0-5.27.75-5.11,4.87.32,8.31.07,16.64.06,25-.06,42-.07,83.95-.26,125.92,0,3.67.82,4.93,4.66,4.77,7.82-.31,15.67-.38,23.48,0,4.71.24,6.28-1,6.15-5.93-.36-14.15-.09-28.32-.24-42.48,0-3,.78-4.08,3.9-4,7,.21,14,.25,21,0,3.22-.12,5.1.94,6.89,3.63,10.05,15.09,20.3,30,30.51,45,1.17,1.71,2,3.73,4.8,3.7,12.15-.12,24.3,0,36.75,0-.07-1,0-1.37-.13-1.59C269.93,445.05,257.7,427,244.9,409.4Zm-16.27-29.48a36.39,36.39,0,0,1-12.73,2.14c-11,.06-21.94-.06-32.91.1-3,0-4.08-.76-4-3.89.22-6.65.06-13.3.06-19.95H179c0-6.49.12-13-.05-19.45-.08-2.86.9-3.72,3.71-3.68,11.64.16,23.28.11,34.91.16a34.41,34.41,0,0,1,9.82,1.58c10.28,3.13,15.9,10.31,16.31,20.72S238.58,376.19,228.63,379.92Z" transform="translate(-98.45 -36.96)"/><path class="cls-1" d="M553.45,349.21c-19.51-13-43.53-11.53-61.89,3.3-1.77,1.43-3.73,2.86-5.76,2.06s-1.09-3.26-1.1-5c-.09-15.83-.17-31.66-.08-47.49,0-3.1-.61-4.48-4.11-4.38q-12.74.38-25.49,0c-3.53-.1-4.08,1.35-4,4.39.13,9.66,0,19.32,0,29q-.09,64.74-.24,129.48c0,3.52.55,5.05,4.56,4.9,8.49-.33,17-.2,25.49,0,2.95,0,4.3-.73,4.11-3.9-.21-3.64-.05-7.3-.05-12a27,27,0,0,1,2.2,1.92c20.19,23.66,58.63,20.2,77.77-2.36,12.92-15.23,16.5-33.18,15-52.36C578.23,377.06,570.3,360.42,553.45,349.21ZM542.1,421.49a29.43,29.43,0,0,1-30.71,17.63c-12.85-1.66-23.31-11.84-26.11-25.51a39.3,39.3,0,0,1-.95-10.08C484,387,494.53,373.45,510,370.17c12-2.54,25.84,4.5,31.64,16.53C547.18,398.14,547.23,409.92,542.1,421.49Z" transform="translate(-98.45 -36.96)"/><path class="cls-1" d="M403.11,353.82c-15.51-11.83-33.34-15-52.49-12.38-36.9,5-62.05,41.62-53.15,77.76,7.19,29.21,32.51,48.37,64,48.43,24.81,0,44.39-10.78,57.44-31.28C435.68,410,430.14,374.44,403.11,353.82Zm-40.86,85.45c-18.79,0-33.12-15.21-33.14-35.21,0-20.47,13.19-34.49,32.43-34.45,18.74,0,33.19,15.38,33.14,35.19C394.63,424.77,381,439.26,362.25,439.27Z" transform="translate(-98.45 -36.96)"/><path class="cls-1" d="M710.22,342.39c-8.15.19-16.32.35-24.46.06-4-.14-5.06,1.14-5,5.05.14,20.31,0,40.62,0,60.93,0,5.55-.52,11-3,16.07-4.59,9.47-10.77,12.63-21.15,12.39-10-.23-16.49-5.36-19.36-14.44-1.47-4.67-1.66-9.5-1.67-14.34,0-20.32-.17-40.64,0-61,0-3.77-1-4.82-4.78-4.69-8.32.29-16.65.17-25,0-2.68-.05-3.84.55-3.83,3.55.09,26.65-.46,53.31.18,79.94.64,26.92,18.2,42.59,45,41.52,13.83-.55,23.9-8,33.5-18.94,0,5.2.13,9.14,0,13.07-.12,2.77.78,3.82,3.68,3.77,8.82-.15,17.65-.17,26.47,0,3,.06,4-.86,4-3.94q-.21-57.47-.16-114.93C714.56,343.16,713.35,342.32,710.22,342.39Z" transform="translate(-98.45 -36.96)"/><path class="cls-1" d="M851.75,460.41q-19-27.5-38.13-55c-1.41-2-1.79-3.47-.2-5.7,8-11.24,15.8-22.62,23.68-33.95l16.14-23.25c-11,0-20.89.16-30.8-.08-3.31-.09-5.09,1.14-6.79,3.8-6.38,9.95-13,19.71-19.44,29.66-1.8,2.8-2.76,3.1-4.67.07-6.37-10.13-13-20.11-19.46-30.17-1.21-1.87-2.3-3.38-5-3.34-10.64.16-21.29.07-32.46.07a11.38,11.38,0,0,0,.74,2c12.39,18.09,24.64,36.28,37.33,54.15,2.47,3.48,2.21,5.42,0,8.58-12.73,17.92-25.24,36-37.8,54-.73,1.05-2.28,2.07-1.75,3.36.71,1.7,2.63.83,4,.84,8.82.08,17.65-.08,26.47.11a6.15,6.15,0,0,0,6-3.31c5.59-8.87,11.35-17.64,17.16-26.37,2.06-3.1,3.64-6.59,6.71-9.37,7.81,12,15.55,23.6,23,35.41a6.89,6.89,0,0,0,6.85,3.65c9.16-.22,18.32,0,27.48-.11,1.18,0,2.68.69,3.63-1.06C853.58,463.15,852.69,461.77,851.75,460.41Z" transform="translate(-98.45 -36.96)"/></g></svg>