<svg id="Warstwa_1" data-name="Warstwa 1" xmlns="http://www.w3.org/2000/svg" viewBox="0 0 475.22 517.86"><defs><style>.cls-1{fill:rgb(247,222,158);stroke:#222;stroke-width:2.5px;stroke-miterlimit:10;}</style></defs><path class="cls-1" d="M.11,262.24q0-41.19,0-82.39c0-9,.87-18.28,3.79-26.54,7.3-20.68,19-38.66,37-52A183.24,183.24,0,0,1,58.43,90.2Q89.65,72.07,120.94,54c18.8-10.85,37.72-21.5,56.4-32.54C189.88,14.08,202.73,7.7,217.19,5,240.94.5,263.63,3.55,284.92,15c14.56,7.8,28.46,16.81,42.81,25,26.39,15,52.79,30,79,45.27,10.72,6.23,21.84,11.84,31.3,20.06,11.43,9.92,19.68,21.9,26.41,35.52,8.31,16.82,9.64,34.44,9.65,52.54,0,44.11,0,88.23.19,132.33.11,23.94-2.42,47.23-16,67.77-10.31,15.58-23.4,28.18-40.14,37.1-14.94,8-29.28,17.09-44,25.57-16.87,9.75-33.84,19.31-50.72,29.06-10.16,5.86-20.23,11.88-30.3,17.89-34.83,20.81-70.36,22.74-106.29,3.31-18.23-9.87-36-20.64-53.91-31-26.49-15.33-52.92-30.78-79.48-46C31.44,416.71,15.8,398.72,6.55,375A88.52,88.52,0,0,1,.33,343.14c-.19-27-.06-53.93-.06-80.9Zm434.41-4.82c-.21-23.63-.26-47.25-.29-70.88,0-24.6-10.13-43.39-30.28-56.65-12.41-8.16-25.6-15.16-38.48-22.61-31.42-18.18-62.8-36.43-94.33-54.43-21.41-12.22-43.48-12.92-65.34-1.47q-16.35,8.57-32.27,18.09c-28.7,17.12-57.78,33.6-86.68,50.38-10.18,5.91-20.78,11.2-29,20-13.78,14.67-18.59,32.25-18.47,52,.29,47.28,0,94.56,0,141.84a77.52,77.52,0,0,0,1.49,16.37c4.39,20.43,16.21,35.38,34.09,45.75q29.13,16.92,58.32,33.72,26,15,52,30c4.89,2.82,10.13,5.16,14.67,8.46,9.81,7.16,21,10,32.71,10.79,15.4,1,29.08-3.45,42.51-11.57,15.44-9.33,31.28-18.12,47-27,25.48-14.43,50.76-29.21,76.12-43.84a78.37,78.37,0,0,0,13-9.12q23.25-20.7,23.21-51.9C434.45,309.36,434.52,283.39,434.52,257.42Z" transform="translate(0.4 -2.5)"/><path class="cls-1" d="M79.11,262.05c0-20-.09-39.93,0-59.9.13-21.93,10-38.45,28.81-49.38q50.27-29.15,100.77-57.88c19.13-10.89,38.39-10.55,57.44.43q38.44,22.17,76.87,44.4c10.08,5.8,20.41,11.21,29.9,18,9.27,6.63,15.42,15.65,19.1,26.37,3.19,9.25,3.15,18.82,3.12,28.47-.12,35.46.3,70.93-.07,106.38-.15,15.21-5.13,29-16.28,40a81.38,81.38,0,0,1-17,12.92q-47.47,27.28-94.75,54.88c-15.72,9.17-32.07,11.52-49.31,5.14A70.58,70.58,0,0,1,207,426.69c-32.71-18.89-65.34-37.95-98.09-56.77-21.11-12.13-30.39-30.34-29.75-54.43.47-17.8.1-35.62.1-53.44Zm217.24-.53h-.08c0-18.48-.08-36.95.08-55.43,0-3.29-.94-4.2-4.19-4.19q-55.19.15-110.36,0c-2.94,0-4.05.67-4.05,3.84q.15,55.44,0,110.87c0,3.15,1.09,4,4,4,8.48-.11,17,0,25.45,0,28.12,0,56.25,0,84.37.12,4,0,4.91-1.46,4.87-5.24C296.25,297.48,296.35,279.5,296.35,261.52Z" transform="translate(0.4 -2.5)"/></svg>